:SAMPLES-PER-SECOND 30
:FULLY-SPECIFIED
:DEGREES
181
root  37.6503 36.6932 21.513 38.241 84.606 20.4397
RightUpLeg  -58.3983 -27.0147 15.781
RightLeg  27.2751 6.57794 3.44529
RightFoot  9.65278 1.29609 -6.61794
RightToes  0.00048216 0.542163 -0.142577
Spine  57.117 -6.1276 7.94562
Spine1  11.2434 -1.75014 -0.145267
HEad  -31.4694 -3.65786 -7.573
LeftShoulder1  10.8297 -24.4862 -32.4966
LeftArm  -28.1124 -56.8375 -19.9868
LeftForeArm  -7.64871 -17.0633 -5.11168
LeftHand  -0.25398 0.0180481 5.50724
RightShoulder  4.23062 12.9801 19.1949
RightArm  -35.6712 43.6917 10.3748
RightForeArm  -33.9511 25.7371 7.01971
RightHand  0.219924 -1.13623 6.31486
LeftUpLeg  -56.2981 18.6735 -20.8989
LeftLeg  34.4149 3.50403 2.93849
LeftFoot  -5.24273 0.00971964 0.00941733
LeftToes  1.06244e-005 4.65856e-005 -8.18505e-006
182
root  38.2079 36.5533 21.9516 34.2855 84.1547 13.2731
RightUpLeg  -61.8159 -25.062 17.664
RightLeg  29.3029 5.83746 3.29998
RightFoot  8.24434 1.15537 -6.3494
RightToes  0.00048216 0.542163 -0.142577
Spine  59.3334 -6.17346 8.09454
Spine1  10.2329 -1.01948 -1.14174
HEad  -33.5082 -3.55678 -7.7049
LeftShoulder1  10.5081 -25.1303 -30.4771
LeftArm  -34.7975 -59.7595 -15.1231
LeftForeArm  -7.43592 -15.3947 -4.67683
LeftHand  -0.25398 0.0180481 5.50724
RightShoulder  4.11567 13.8084 17.1409
RightArm  -39.4506 45.9877 5.86618
RightForeArm  -33.9893 22.665 6.44091
RightHand  0.334148 0.252815 6.88268
LeftUpLeg  -58.5837 18.7049 -23.4491
LeftLeg  28.8433 2.33594 1.71528
LeftFoot  -1.0312 -0.527889 5.90912
LeftToes  1.06244e-005 4.65856e-005 -8.18505e-006
183
root  38.7407 36.4047 22.3905 30.6027 84.3828 7.17676
RightUpLeg  -64.2919 -23.1133 18.6832
RightLeg  31.7397 4.42435 2.70206
RightFoot  6.29045 1.09663 -6.80087
RightToes  0.00048216 0.542163 -0.142577
Spine  61.9253 -6.20113 8.29071
Spine1  8.82543 -0.664498 -1.22802
HEad  -35.1764 -3.32945 -7.81445
LeftShoulder1  10.1639 -25.6431 -28.6072
LeftArm  -41.5512 -61.8762 -9.68824
LeftForeArm  -7.61591 -14.4013 -4.04786
LeftHand  -0.25398 0.0180481 5.50724
RightShoulder  4.0265 14.5967 15.4687
RightArm  -43.9803 47.9038 0.40994
RightForeArm  -33.0207 19.538 6.23028
RightHand  0.465032 1.44084 7.75634
LeftUpLeg  -60.9712 16.6334 -22.0868
LeftLeg  29.9566 3.5953 2.60846
LeftFoot  0.534156 -1.13309 10.939
LeftToes  1.06244e-005 4.65856e-005 -8.18505e-006
184
root  39.2681 36.2666 22.8509 30.5477 84.8165 5.16189
RightUpLeg  -66.1949 -21.4126 19.0454
RightLeg  34.1779 2.91564 1.87328
RightFoot  3.99069 1.19926 -8.68633
RightToes  0.00048216 0.542163 -0.142577
Spine  64.5543 -6.11298 8.32892
Spine1  7.1647 -0.604946 -1.00027
HEad  -37.0086 -3.12388 -7.65772
LeftShoulder1  9.84874 -26.1035 -26.9467
LeftArm  -48.6721 -63.4888 -3.74657
LeftForeArm  -7.76811 -14.0238 -3.32811
LeftHand  -0.25398 0.0180481 5.50724
RightShoulder  3.9633 15.2545 14.2402
RightArm  -48.9495 49.0474 -5.22484
RightForeArm  -31.5384 17.3406 6.0409
RightHand  0.619004 2.66402 8.65188
LeftUpLeg  -63.4186 15.2942 -20.4147
LeftLeg  33.2084 4.633 3.6077
LeftFoot  -0.764484 -1.02462 11.023
LeftToes  1.06244e-005 4.65856e-005 -8.18505e-006
185
root  39.8196 36.147 23.2862 34.8641 84.8939 7.17416
RightUpLeg  -68.3338 -19.8218 19.2797
RightLeg  36.0749 1.63432 1.01678
RightFoot  2.18947 1.24763 -10.3406
RightToes  0.00048216 0.542163 -0.142577
Spine  66.7557 -6.01381 8.1289
Spine1  5.64436 -0.468324 -1.4272
HEad  -38.8821 -3.11835 -7.43428
LeftShoulder1  9.63361 -26.6513 -25.5689
LeftArm  -55.8149 -64.4386 2.22188
LeftForeArm  -7.89751 -14.2977 -2.69431
LeftHand  -0.25398 0.0180481 5.50724
RightShoulder  3.86944 15.7387 13.116
RightArm  -53.809 49.2631 -9.8332
RightForeArm  -28.9777 16.1711 5.6073
RightHand  0.845879 4.44034 9.58038
LeftUpLeg  -66.0944 15.4502 -20.7505
LeftLeg  35.0721 3.91397 3.31371
LeftFoot  -2.11881 -0.699604 8.84258
LeftToes  1.06244e-005 4.65856e-005 -8.18505e-006
186
root  40.3766 36.0687 23.6567 40.2088 84.8052 9.72526
RightUpLeg  -70.8446 -18.3969 19.7704
RightLeg  37.3093 0.898181 0.464672
RightFoot  1.16207 1.25463 -11.3268
RightToes  0.00048216 0.542163 -0.142577
Spine  68.4873 -6.16245 7.97195
Spine1  4.23697 -0.139758 -2.62736
HEad  -40.3214 -3.35634 -7.37664
LeftShoulder1  9.46837 -27.1972 -24.4015
LeftArm  -61.8939 -64.6761 6.9781
LeftForeArm  -7.78128 -15.0825 -2.32158
LeftHand  -0.25398 0.0180481 5.50724
RightShoulder  3.75355 16.1822 11.9635
RightArm  -58.0048 48.7885 -13.2605
RightForeArm  -25.2266 15.3371 4.9745
RightHand  1.18011 6.94005 10.5884
LeftUpLeg  -68.9736 15.8817 -22.2659
LeftLeg  35.7313 2.61643 2.39033
LeftFoot  -2.2062 -0.680687 8.66916
LeftToes  1.06244e-005 4.65856e-005 -8.18505e-006
187
root  40.9186 36.0067 23.9709 43.4905 84.9495 10.3861
RightUpLeg  -73.1696 -17.3227 20.5034
RightLeg  38.4607 0.542818 0.185037
RightFoot  0.19724 1.2055 -11.8617
RightToes  0.00048216 0.542163 -0.142577
Spine  69.9321 -6.42396 8.18645
Spine1  2.68631 0.160281 -3.65635
HEad  -41.4527 -3.67335 -7.42706
LeftShoulder1  9.33098 -27.6383 -23.4715
LeftArm  -66.408 -64.478 10.3927
LeftForeArm  -7.32176 -16.1335 -2.32679
LeftHand  -0.25398 0.0180481 5.50724
RightShoulder  3.65408 16.5775 10.9934
RightArm  -61.3629 48.0527 -16.3079
RightForeArm  -21.5796 14.6792 4.34391
RightHand  1.53365 9.85061 11.0838
LeftUpLeg  -71.6447 15.9686 -23.3233
LeftLeg  36.7392 1.8553 1.8617
LeftFoot  -2.31708 -0.748423 9.63897
LeftToes  1.06244e-005 4.65856e-005 -8.18505e-006
